grf
version=1
nRows=15
nColumns=19
inDegrees=no
endheader
time	ground_force_r_vx	ground_force_r_vy	ground_force_r_vz	ground_force_r_px	ground_force_r_py	ground_force_r_pz	ground_torque_r_x	ground_torque_r_y	ground_torque_r_z	ground_force_l_vx	ground_force_l_vy	ground_force_l_vz	ground_force_l_px	ground_force_l_py	ground_force_l_pz	ground_torque_l_x	ground_torque_l_y	ground_torque_l_z
      0.48600000	      0.00000000	      0.00000000	      0.00000000	      0.00000000	      0.00000000	      0.00000000	      0.00000000	      0.00000000	      0.00000000	     -5.19915986	   2097.87626231	   -108.87924420	     -0.09390035	      0.00000000	      0.17873880	      0.16595985	    -11.24088936	      0.66522693
      0.48700000	      0.00000000	      0.00000000	      0.00000000	      0.00000000	      0.00000000	      0.00000000	      0.00000000	      0.00000000	      0.00000000	     34.99572831	   2096.25501212	   -104.96237317	     -0.09366570	      0.00000000	      0.17886623	     -0.03911513	     -9.79171375	      0.56593540
      0.48800000	      0.00000000	      0.00000000	      0.00000000	      0.00000000	      0.00000000	      0.00000000	      0.00000000	      0.00000000	      0.00000000	     73.69357840	   2094.13167601	   -100.92627714	     -0.09338875	      0.00000000	      0.17893067	     -0.21258236	     -8.40145944	      0.46717071
      0.48900000	      0.00000000	      0.00000000	      0.00000000	      0.00000000	      0.00000000	      0.00000000	      0.00000000	      0.00000000	      0.00000000	    110.21428091	   2091.01464076	    -96.98097359	     -0.09306501	      0.00000000	      0.17894420	     -0.34841213	     -7.09269622	      0.37301995
      0.49000000	      0.00000000	      0.00000000	      0.00000000	      0.00000000	      0.00000000	      0.00000000	      0.00000000	      0.00000000	      0.00000000	    144.15808164	   2086.39508177	    -93.27103385	     -0.09269704	      0.00000000	      0.17892113	     -0.44230170	     -5.87270802	      0.28633402
      0.49100000	      0.00000000	      0.00000000	      0.00000000	      0.00000000	      0.00000000	      0.00000000	      0.00000000	      0.00000000	      0.00000000	    175.39548013	   2079.76004673	    -89.85774263	     -0.09228858	      0.00000000	      0.17887783	     -0.49183150	     -4.73744487	      0.20879984
      0.49200000	      0.00000000	      0.00000000	      0.00000000	      0.00000000	      0.00000000	      0.00000000	      0.00000000	      0.00000000	      0.00000000	    204.04892397	   2070.61599516	    -86.72745330	     -0.09184496	      0.00000000	      0.17883031	     -0.49687357	     -3.67823904	      0.14120348
      0.49300000	      0.00000000	      0.00000000	      0.00000000	      0.00000000	      0.00000000	      0.00000000	      0.00000000	      0.00000000	      0.00000000	    230.45135405	   2058.50507879	    -83.81747729	     -0.09137377	      0.00000000	      0.17879083	     -0.46004639	     -2.68868248	      0.08373514
      0.49400000	      0.00000000	      0.00000000	      0.00000000	      0.00000000	      0.00000000	      0.00000000	      0.00000000	      0.00000000	      0.00000000	    255.08276874	   2043.01262169	    -81.04940246	     -0.09088462	      0.00000000	      0.17876635	     -0.38597399	     -1.76512035	      0.03609107
      0.49500000	      0.00000000	      0.00000000	      0.00000000	      0.00000000	      0.00000000	      0.00000000	      0.00000000	      0.00000000	      0.00000000	    278.50213326	   2023.77147116	    -78.36448515	     -0.09038939	      0.00000000	      0.17875986	     -0.27935631	     -0.90164335	     -0.00261228
      0.49600000	      0.00000000	      0.00000000	      0.00000000	      0.00000000	      0.00000000	      0.00000000	      0.00000000	      0.00000000	      0.00000000	    301.27656233	   2000.46444189	    -75.74767700	     -0.08990237	      0.00000000	      0.17877259	     -0.14299420	     -0.08529935	     -0.03392467
      0.49700000	      0.00000000	      0.00000000	      0.00000000	      0.00000000	      0.00000000	      0.00000000	      0.00000000	      0.00000000	      0.00000000	    323.91857936	   1972.82562915	    -73.23202871	     -0.08943576	      0.00000000	      0.17880497	      0.02326848	      0.70468690	     -0.06000547
      0.49800000	      0.00000000	      0.00000000	      0.00000000	      0.00000000	      0.00000000	      0.00000000	      0.00000000	      0.00000000	      0.00000000	    346.84203107	   1940.64983829	    -70.88564184	     -0.08899460	      0.00000000	      0.17885925	      0.22170725	      1.49145639	     -0.08330875
      0.49900000	      0.00000000	      0.00000000	      0.00000000	      0.00000000	      0.00000000	      0.00000000	      0.00000000	      0.00000000	      0.00000000	    370.32926538	   1903.80682144	    -68.78974752	     -0.08857801	      0.00000000	      0.17894178	      0.45478633	      2.29278797	     -0.10614591
      0.50000000	      0.00000000	      0.00000000	      0.00000000	      0.00000000	      0.00000000	      0.00000000	      0.00000000	      0.00000000	      0.00000000	    394.50514940	   1862.25845390	    -67.00997405	     -0.08818627	      0.00000000	      0.17906267	      0.72351419	      3.11603342	     -0.13030078
